<?xml version="1.0" encoding="UTF-8"?>
<svg width="28px" height="32px" viewBox="0 0 28 32" version="1.1" xmlns="http://www.w3.org/2000/svg" xmlns:xlink="http://www.w3.org/1999/xlink">
    <!-- Generator: Sketch 50 (54983) - http://www.bohemiancoding.com/sketch -->
    <title>个人中心-3-1未付款详情 copy 2</title>
    <desc>Created with Sketch.</desc>
    <defs></defs>
    <g id="Page-1" stroke="none" stroke-width="1" fill="none" fill-rule="evenodd">
        <g id="个人中心-3-1未付款详情" transform="translate(-1232.000000, -1006.000000)">
            <g id="foot" transform="translate(360.000000, 997.000000)">
                <g id="底部logo栏">
                    <polygon id="Polygon-Copy-2" stroke="#F9421E" fill="#FFFFFF" points="886 10 898.990381 17.5 898.990381 32.5 886 40 873.009619 32.5 873.009619 17.5"></polygon>
                    <g id="收货地址" transform="translate(879.000000, 20.000000)" fill="#FB5A33" fill-rule="nonzero">
                        <path d="M8.84320087,0.0061441048 L0.37080131,0.0061441048 C0.16958952,0.0061441048 0.00640393013,0.168366812 0.00640393013,0.368172489 L0.00640393013,9.18046943 C0.00640393013,9.38027511 0.169574236,9.54249782 0.37080131,9.54249782 L8.84320087,9.54249782 C9.04441266,9.54249782 9.20784279,9.38045852 9.20784279,9.18046943 L9.20784279,0.368172489 C9.2081179,0.168366812 9.04467249,0.0061441048 8.84320087,0.0061441048 Z M8.47900218,8.81847162 L0.735382096,8.81847162 L0.735382096,0.730048035 L8.47875764,0.730048035 L8.47875764,8.81847162 L8.47900218,8.81847162 Z M13.9497926,4.28024017 L12.6563515,1.90410699 C12.592679,1.78703275 12.4696135,1.71435808 12.3358035,1.71435808 L9.94290393,1.71435808 C9.74169214,1.71435808 9.57826201,1.87639738 9.57826201,2.07621834 L9.57826201,6.12321179 C9.57826201,6.32301747 9.74169214,6.48507205 9.94290393,6.48507205 L12.3358035,6.48507205 C12.5370153,6.48507205 12.7002009,6.32329258 12.7002009,6.12321179 C12.7002009,5.923131 12.5372293,5.76118341 12.3358035,5.76118341 L10.3072707,5.76118341 L10.3072707,2.43852183 L12.1182838,2.43852183 L13.2646332,4.54446725 L13.2646332,8.81851747 L9.94288865,8.81851747 C9.74167686,8.81851747 9.57824672,8.98055677 9.57824672,9.18054585 C9.57824672,9.38053493 9.74167686,9.54257424 9.94288865,9.54257424 L13.629,9.54257424 C13.830441,9.54257424 13.9936419,9.38053493 13.9936419,9.18054585 L13.9936419,4.45302402 C13.9936419,4.39265284 13.9784956,4.33367249 13.9498079,4.28024017 L13.9497926,4.28024017 Z M1.66467031,7.61361572 L7.16176419,7.61361572 C7.36320524,7.61361572 7.52640611,7.45157642 7.52640611,7.25131223 C7.52640611,7.05176638 7.36323581,6.88945197 7.16176419,6.88945197 L1.66467031,6.88945197 C1.46345852,6.88945197 1.30002838,7.05149127 1.30002838,7.25131223 C1.30002838,7.4515917 1.46319869,7.61361572 1.66467031,7.61361572 Z M4.1681179,9.93752402 C3.96690611,9.93752402 3.80347598,10.0993035 3.80347598,10.2993843 C3.80347598,10.9092402 3.30387773,11.4053996 2.69003275,11.4053996 C2.07595852,11.4053996 1.57631441,10.909286 1.57631441,10.2993843 C1.57631441,10.0995786 1.4131441,9.93752402 1.21191703,9.93752402 C1.01026201,9.93752402 0.847275109,10.0993035 0.847275109,10.2993843 C0.847275109,11.3083624 1.67379476,12.1295328 2.68995633,12.1295328 C3.70594978,12.1295328 4.5324083,11.3086528 4.5324083,10.2993843 C4.5324083,10.0993493 4.36943668,9.93752402 4.16801092,9.93752402 L4.1681179,9.93752402 Z M12.7883275,9.93752402 C12.5871157,9.93752402 12.4239301,10.0993035 12.4239301,10.2993843 C12.4239301,10.9092402 11.9241026,11.4053996 11.3102118,11.4053996 C10.695893,11.4053996 10.1967686,10.909286 10.1967686,10.2993843 C10.1967686,10.0995786 10.0335983,9.93752402 9.83212664,9.93752402 C9.63091485,9.93752402 9.46772926,10.0993035 9.46772926,10.2993843 C9.46772926,11.3083624 10.2943865,12.1295328 11.3101812,12.1295328 C12.3261747,12.1295328 13.1524039,11.3086528 13.1524039,10.2993843 C13.152679,10.0993493 12.9894323,9.93752402 12.7882511,9.93752402 L12.7883275,9.93752402 Z" id="Shape"></path>
                    </g>
                </g>
            </g>
        </g>
    </g>
</svg>