<?xml version="1.0" encoding="UTF-8"?>
<svg width="28px" height="32px" viewBox="0 0 28 32" version="1.1" xmlns="http://www.w3.org/2000/svg" xmlns:xlink="http://www.w3.org/1999/xlink">
    <!-- Generator: Sketch 50 (54983) - http://www.bohemiancoding.com/sketch -->
    <title>个人中心-3-1未付款详情 copy</title>
    <desc>Created with Sketch.</desc>
    <defs></defs>
    <g id="Page-1" stroke="none" stroke-width="1" fill="none" fill-rule="evenodd">
        <g id="个人中心-3-1未付款详情" transform="translate(-925.000000, -1006.000000)">
            <g id="foot" transform="translate(360.000000, 997.000000)">
                <g id="底部logo栏">
                    <polygon id="Polygon-Copy" stroke="#F9421E" fill="#FFFFFF" points="579 10 591.990381 17.5 591.990381 32.5 579 40 566.009619 32.5 566.009619 17.5"></polygon>
                    <g id="安全" transform="translate(572.000000, 17.000000)" fill="#FB5A33" fill-rule="nonzero">
                        <g id="Group">
                            <polygon id="Shape" points="7.30124138 4.31006897 6.67558621 4.31006897 6.67558621 7.77241379 3.22482759 7.77241379 3.22482759 8.39806897 6.67558621 8.39806897 6.67558621 13.1696552 7.30124138 13.1696552 7.30124138 8.39806897 10.7326897 8.39806897 10.7326897 7.77241379 7.30124138 7.77241379"></polygon>
                            <path d="M13.9922759,2.39255172 L12.7988966,2.37517241 C12.7853793,2.37517241 11.4645517,2.34427586 10.0896552,1.78813793 C8.77268966,1.25131034 7.88248276,0.643034483 7.71641379,0.527172414 L7,0.00772413793 L6.28937931,0.527172414 C6.28937931,0.527172414 6.28551724,0.531034483 6.27586207,0.534896552 C6.03641379,0.702896552 5.15972414,1.27641379 3.9142069,1.78813793 C2.56441379,2.33655172 1.21848276,2.37517241 1.20496552,2.37517241 L0.0424827586,2.39255172 L0.00772413793,2.39255172 L0.00772413793,9.44275862 C0.00772413793,13.0518621 4.49544828,16.7150345 7.00386207,16.7150345 C9.51034483,16.7150345 13.9961379,13.049931 13.9961379,9.44275862 L13.9922759,2.39255172 Z M7.0057931,16.2612414 C4.77158621,16.2612414 0.573517241,12.6984828 0.573517241,9.53351724 L0.573517241,3.03172414 L0.652689655,3.03172414 C0.666206897,3.03172414 2.35006897,2.99889655 4.08027586,2.29213793 C5.83365517,1.58151724 6.94593103,0.76662069 6.95172414,0.762758621 L7.00386207,0.724137931 L7.056,0.762758621 C7.06565517,0.76662069 8.17793103,1.58151724 9.93131034,2.29213793 C10.8427586,2.66482759 11.7117241,2.84248276 12.2833103,2.92744828 C12.9244138,3.02206897 13.3434483,3.03172414 13.3492414,3.03172414 L13.4322759,3.03172414 L13.4361379,9.53351724 C13.4342069,12.6965517 9.24,16.2612414 7.0057931,16.2612414 Z" id="Shape"></path>
                        </g>
                    </g>
                </g>
            </g>
        </g>
    </g>
</svg>