<?xml version="1.0" encoding="UTF-8"?>
<svg width="28px" height="32px" viewBox="0 0 28 32" version="1.1" xmlns="http://www.w3.org/2000/svg" xmlns:xlink="http://www.w3.org/1999/xlink">
    <!-- Generator: Sketch 50 (54983) - http://www.bohemiancoding.com/sketch -->
    <title>个人中心-3-1未付款详情</title>
    <desc>Created with Sketch.</desc>
    <defs></defs>
    <g id="Page-1" stroke="none" stroke-width="1" fill="none" fill-rule="evenodd">
        <g id="个人中心-3-1未付款详情" transform="translate(-576.000000, -1006.000000)">
            <g id="foot" transform="translate(360.000000, 997.000000)">
                <g id="底部logo栏">
                    <polygon id="Polygon" stroke="#F9421E" fill="#FFFFFF" points="230 10 242.990381 17.5 242.990381 32.5 230 40 217.009619 32.5 217.009619 17.5"></polygon>
                    <g id="优惠券" transform="translate(222.000000, 17.000000)" fill="#FB5A33" fill-rule="nonzero">
                        <g id="Group">
                            <path d="M4.42952599,8.23364979 C4.30966336,8.23364979 4.18963025,8.27729819 4.10233343,8.36459502 C4.0150366,8.46280394 3.96047611,8.58266657 3.96047611,8.70269971 C3.96047611,8.82273284 4.00412451,8.94259545 4.10233343,9.02989227 L6.98193494,11.9096643 C7.06923176,11.9969611 7.18909437,12.0406095 7.30912753,12.0406095 C7.42899016,12.0406095 7.54902327,11.9969611 7.64723219,11.9096643 C7.73435851,11.8114554 7.77800691,11.6915927 7.77800691,11.5715596 C7.77800691,11.4515265 7.73435851,11.3314934 7.64723219,11.2441966 L4.76763068,8.36442452 C4.68050435,8.27729819 4.56047124,8.23364979 4.42952599,8.23364979 Z M8.64006301,10.7095035 C8.75992564,10.7095035 8.87978825,10.6658551 8.97799717,10.5785583 C9.06529399,10.4805199 9.1089424,10.3606573 9.1089424,10.2406241 C9.1089424,10.120591 9.06529399,10.0005579 8.97799717,9.91326105 L6.09839566,7.03383004 C6.01109883,6.94653322 5.89123622,6.89197272 5.77120309,6.89197272 C5.65116996,6.89197272 5.52039523,6.94636274 5.43309841,7.03383004 C5.34580158,7.12112687 5.29124109,7.25190159 5.29124109,7.3719347 C5.29124109,7.49196783 5.3456311,7.61200094 5.43309841,7.69912729 L8.31269994,10.5787288 C8.39999677,10.6658551 8.52002988,10.7095035 8.64006301,10.7095035 Z" id="Shape"></path>
                            <path d="M15.8932011,6.63025274 L15.3479369,4.0232833 C15.3273766,3.89589248 15.2515445,3.78411029 15.1407775,3.71791493 C15.0425686,3.65244231 14.9117939,3.61970601 14.7808486,3.65244231 C14.660986,3.67426653 14.5516945,3.75065123 14.4753098,3.85977225 C14.4100076,3.95798117 14.3880129,4.08875589 14.4100076,4.21970114 L15.0643928,7.45923153 L14.9880081,7.53561626 L11.6722635,10.8513608 L7.65831478,14.8653095 L1.14634719,8.35351242 L8.55276618,0.947434431 L13.4129143,1.9252611 L11.519494,3.82703594 L11.5237566,3.8312985 C10.874612,3.47910636 10.0715496,3.59246521 9.545256,4.11058011 C8.90174823,4.76408625 8.90174823,5.81306506 9.545256,6.46657121 C10.1987621,7.11007898 11.247741,7.11007898 11.9012471,6.46657121 C12.419314,5.94026637 12.5327324,5.13727226 12.1806992,4.48807065 L12.1849618,4.49233319 L14.7042934,1.96174846 C14.8025023,1.87445163 14.8461507,1.75458903 14.8461507,1.63455587 C14.8466413,1.4928842 14.7832566,1.3585362 14.6736031,1.26882995 L14.6635435,1.26098688 C14.6551586,1.25465648 14.6466313,1.24851684 14.6379683,1.2425727 L14.6302957,1.23745765 C14.5759966,1.20336447 14.5161613,1.17901487 14.4534855,1.16550598 L9.38157447,0.118285145 C8.31252944,-0.0997864071 8.1161116,0.052812531 7.61449588,0.554598749 L0.153686867,8.02649036 C0.0554779469,8.11378719 0.0118295457,8.23364979 0.0118295457,8.35351242 C0.0118295457,8.47354556 0.0554779469,8.59357867 0.153686867,8.68087549 L7.32003962,15.8581403 C7.41807804,15.9561788 7.53811117,15.9999977 7.65814428,15.9999977 C7.77817739,15.9999977 7.89804002,15.9454371 7.98533687,15.8581403 L12.3271601,11.5163171 L15.457058,8.39733133 C15.9477616,7.89554511 16.1114431,7.69912727 15.8932011,6.63025274 Z M11.3121641,5.87765869 C10.9832025,6.19397609 10.4631301,6.19397609 10.1341685,5.87765869 C9.97709874,5.72190348 9.88874651,5.50986353 9.88874651,5.28866091 C9.88874651,5.06745828 9.97709874,4.85541834 10.1341685,4.69966313 C10.2899237,4.54259335 10.5019637,4.45424112 10.7231663,4.45424112 C10.9443689,4.45424112 11.1564089,4.54259335 11.3121641,4.69966313 C11.4692339,4.85541834 11.5575861,5.06745828 11.5575861,5.28866091 C11.5575861,5.50986353 11.4692339,5.72190348 11.3121641,5.87765869 Z" id="Shape"></path>
                        </g>
                    </g>
                </g>
            </g>
        </g>
    </g>
</svg>